HIERARCHY
ROOT Root
{
OFFSET 0.000000 0.000000 0.000000
  CHANNELS 6 Xposition Yposition Zposition Zrotation Yrotation Xrotation
 JOINT Hips
 {
   OFFSET -0.00455359416082507 101.28157745081357 1.7763568394002505e-15
   CHANNELS 6 Xposition Yposition Zposition Zrotation Yrotation Xrotation
  JOINT Spine1
  {
    OFFSET 5.003913 -0.037094 -0.013727
    CHANNELS 3 Zrotation Yrotation Xrotation
   JOINT Spine2
   {
     OFFSET 7.125363 -0.000001 -0.000000
     CHANNELS 3 Zrotation Yrotation Xrotation
    JOINT Chest
    {
      OFFSET 7.594027 0.000001 -0.000000
      CHANNELS 3 Zrotation Yrotation Xrotation
     JOINT Neck1
     {
       OFFSET 26.313085 -0.460272 -0.181672
       CHANNELS 3 Zrotation Yrotation Xrotation
      JOINT Neck2
      {
        OFFSET 8.045911 -0.000000 0.000000
        CHANNELS 3 Zrotation Yrotation Xrotation
       JOINT Head
       {
         OFFSET 6.432774 0.000000 0.000000
         CHANNELS 3 Zrotation Yrotation Xrotation
        JOINT HeadEnd
        {
          OFFSET 16.169773 0.064510 0.003620
          CHANNELS 3 Zrotation Yrotation Xrotation
        }
        JOINT Jaw
        {
          OFFSET 0.108741 3.129380 0.002639
          CHANNELS 3 Zrotation Yrotation Xrotation
        }
        JOINT LeftEye
        {
          OFFSET 4.451730 8.166359 3.206392
          CHANNELS 3 Zrotation Yrotation Xrotation
        }
        JOINT RightEye
        {
          OFFSET 4.436895 8.135758 -3.222429
          CHANNELS 3 Zrotation Yrotation Xrotation
        }
       }
      }
     }
     JOINT LeftShoulder
     {
       OFFSET 23.218928 5.195579 1.621656
       CHANNELS 3 Zrotation Yrotation Xrotation
      JOINT LeftArm
      {
        OFFSET 15.902118 0.000002 -0.000002
        CHANNELS 3 Zrotation Yrotation Xrotation
       JOINT LeftForeArm
       {
         OFFSET 28.739307 0.000000 -0.000001
         CHANNELS 3 Zrotation Yrotation Xrotation
        JOINT LeftHand
        {
          OFFSET 27.093980 -0.000004 -0.000000
          CHANNELS 3 Zrotation Yrotation Xrotation
         JOINT LeftHandThumb1
         {
           OFFSET 2.276781 3.380274 0.833840
           CHANNELS 3 Zrotation Yrotation Xrotation
          JOINT LeftHandThumb2
          {
            OFFSET 4.705309 -0.000001 -0.000001
            CHANNELS 3 Zrotation Yrotation Xrotation
           JOINT LeftHandThumb3
           {
             OFFSET 2.798515 -0.000000 0.000003
             CHANNELS 3 Zrotation Yrotation Xrotation
            JOINT LeftHandThumbEnd
            {
              OFFSET 3.180793 0.000004 -0.000004
              CHANNELS 3 Zrotation Yrotation Xrotation
            }
           }
          }
         }
         JOINT LeftHandIndex1
         {
           OFFSET 3.247786 2.352677 0.137192
           CHANNELS 3 Zrotation Yrotation Xrotation
          JOINT LeftHandIndex2
          {
            OFFSET 6.367095 0.000001 -0.000000
            CHANNELS 3 Zrotation Yrotation Xrotation
           JOINT LeftHandIndex3
           {
             OFFSET 3.662364 -0.000000 0.000000
             CHANNELS 3 Zrotation Yrotation Xrotation
            JOINT LeftHandIndex4
            {
              OFFSET 2.329242 0.000004 -0.000004
              CHANNELS 3 Zrotation Yrotation Xrotation
             JOINT LeftHandIndexEnd
             {
               OFFSET 2.767823 0.000001 0.000000
               CHANNELS 3 Zrotation Yrotation Xrotation
             }
            }
           }
          }
         }
         JOINT LeftHandMiddle1
         {
           OFFSET 3.163612 0.945023 -0.406112
           CHANNELS 3 Zrotation Yrotation Xrotation
          JOINT LeftHandMiddle2
          {
            OFFSET 6.276789 0.000003 -0.000000
            CHANNELS 3 Zrotation Yrotation Xrotation
           JOINT LeftHandMiddle3
           {
             OFFSET 4.356520 -0.000001 0.000004
             CHANNELS 3 Zrotation Yrotation Xrotation
            JOINT LeftHandMiddle4
            {
              OFFSET 2.996877 -0.000000 0.000008
              CHANNELS 3 Zrotation Yrotation Xrotation
             JOINT LeftHandMiddleEnd
             {
               OFFSET 2.323256 0.000003 -0.000004
               CHANNELS 3 Zrotation Yrotation Xrotation
             }
            }
           }
          }
         }
         JOINT LeftHandRing1
         {
           OFFSET 2.882606 -0.309162 0.107445
           CHANNELS 3 Zrotation Yrotation Xrotation
          JOINT LeftHandRing2
          {
            OFFSET 6.033198 0.000000 0.000004
            CHANNELS 3 Zrotation Yrotation Xrotation
           JOINT LeftHandRing3
           {
             OFFSET 4.350578 0.000003 -0.000000
             CHANNELS 3 Zrotation Yrotation Xrotation
            JOINT LeftHandRing4
            {
              OFFSET 2.651321 0.000002 -0.000007
              CHANNELS 3 Zrotation Yrotation Xrotation
             JOINT LeftHandRingEnd
             {
               OFFSET 1.937663 0.000001 -0.000004
               CHANNELS 3 Zrotation Yrotation Xrotation
             }
            }
           }
          }
         }
         JOINT LeftHandPinky1
         {
           OFFSET 2.865315 -1.525436 0.575687
           CHANNELS 3 Zrotation Yrotation Xrotation
          JOINT LeftHandPinky2
          {
            OFFSET 5.549360 0.000001 -0.000008
            CHANNELS 3 Zrotation Yrotation Xrotation
           JOINT LeftHandPinky3
           {
             OFFSET 3.070974 0.000000 -0.000004
             CHANNELS 3 Zrotation Yrotation Xrotation
            JOINT LeftHandPinky4
            {
              OFFSET 1.549672 0.000001 -0.000000
              CHANNELS 3 Zrotation Yrotation Xrotation
             JOINT LeftHandPinkyEnd
             {
               OFFSET 1.952123 -0.000000 0.000000
               CHANNELS 3 Zrotation Yrotation Xrotation
             }
            }
           }
          }
         }
        }
       }
      }
     }
     JOINT RightShoulder
     {
       OFFSET 23.161717 5.296122 -1.380114
       CHANNELS 3 Zrotation Yrotation Xrotation
      JOINT RightArm
      {
        OFFSET -16.027195 -0.000002 0.000011
        CHANNELS 3 Zrotation Yrotation Xrotation
       JOINT RightForeArm
       {
         OFFSET -28.736639 0.000004 0.000002
         CHANNELS 3 Zrotation Yrotation Xrotation
        JOINT RightHand
        {
          OFFSET -27.133619 0.000006 0.000000
          CHANNELS 3 Zrotation Yrotation Xrotation
         JOINT RightHandThumb1
         {
           OFFSET -2.274328 -3.351035 -0.830670
           CHANNELS 3 Zrotation Yrotation Xrotation
          JOINT RightHandThumb2
          {
            OFFSET -4.703594 -0.000003 0.000002
            CHANNELS 3 Zrotation Yrotation Xrotation
           JOINT RightHandThumb3
           {
             OFFSET -2.794935 -0.000004 -0.000003
             CHANNELS 3 Zrotation Yrotation Xrotation
            JOINT RightHandThumbEnd
            {
              OFFSET -3.183852 0.000004 0.000001
              CHANNELS 3 Zrotation Yrotation Xrotation
            }
           }
          }
         }
         JOINT RightHandIndex1
         {
           OFFSET -3.253496 -2.337550 -0.127667
           CHANNELS 3 Zrotation Yrotation Xrotation
          JOINT RightHandIndex2
          {
            OFFSET -6.344434 0.000000 -0.000000
            CHANNELS 3 Zrotation Yrotation Xrotation
           JOINT RightHandIndex3
           {
             OFFSET -3.654871 0.000000 -0.000008
             CHANNELS 3 Zrotation Yrotation Xrotation
            JOINT RightHandIndex4
            {
              OFFSET -2.327586 -0.000001 -0.000000
              CHANNELS 3 Zrotation Yrotation Xrotation
             JOINT RightHandIndexEnd
             {
               OFFSET -2.770001 0.000003 0.000008
               CHANNELS 3 Zrotation Yrotation Xrotation
             }
            }
           }
          }
         }
         JOINT RightHandMiddle1
         {
           OFFSET -3.168223 -0.944764 0.411762
           CHANNELS 3 Zrotation Yrotation Xrotation
          JOINT RightHandMiddle2
          {
            OFFSET -6.266691 -0.000001 -0.000004
            CHANNELS 3 Zrotation Yrotation Xrotation
           JOINT RightHandMiddle3
           {
             OFFSET -4.348901 -0.000000 -0.000000
             CHANNELS 3 Zrotation Yrotation Xrotation
            JOINT RightHandMiddle4
            {
              OFFSET -3.000240 0.000002 -0.000004
              CHANNELS 3 Zrotation Yrotation Xrotation
             JOINT RightHandMiddleEnd
             {
               OFFSET -2.321477 -0.000004 -0.000004
               CHANNELS 3 Zrotation Yrotation Xrotation
             }
            }
           }
          }
         }
         JOINT RightHandRing1
         {
           OFFSET -2.885654 0.293261 -0.119232
           CHANNELS 3 Zrotation Yrotation Xrotation
          JOINT RightHandRing2
          {
            OFFSET -6.032835 -0.000001 -0.000004
            CHANNELS 3 Zrotation Yrotation Xrotation
           JOINT RightHandRing3
           {
             OFFSET -4.338810 0.000000 -0.000004
             CHANNELS 3 Zrotation Yrotation Xrotation
            JOINT RightHandRing4
            {
              OFFSET -2.654903 -0.000004 -0.000004
              CHANNELS 3 Zrotation Yrotation Xrotation
             JOINT RightHandRingEnd
             {
               OFFSET -1.935122 0.000000 0.000004
               CHANNELS 3 Zrotation Yrotation Xrotation
             }
            }
           }
          }
         }
         JOINT RightHandPinky1
         {
           OFFSET -2.866241 1.503904 -0.605270
           CHANNELS 3 Zrotation Yrotation Xrotation
          JOINT RightHandPinky2
          {
            OFFSET -5.553177 -0.000002 0.000000
            CHANNELS 3 Zrotation Yrotation Xrotation
           JOINT RightHandPinky3
           {
             OFFSET -3.062664 -0.000001 -0.000004
             CHANNELS 3 Zrotation Yrotation Xrotation
            JOINT RightHandPinky4
            {
              OFFSET -1.546529 0.000002 0.000004
              CHANNELS 3 Zrotation Yrotation Xrotation
             JOINT RightHandPinkyEnd
             {
               OFFSET -1.952341 -0.000000 -0.000004
               CHANNELS 3 Zrotation Yrotation Xrotation
             }
            }
           }
          }
         }
        }
       }
      }
     }
    }
   }
  }
  JOINT LeftLeg
  {
    OFFSET -8.443107 2.567604 10.043214
    CHANNELS 3 Zrotation Yrotation Xrotation
   JOINT LeftShin
   {
     OFFSET 43.229200 0.000001 -0.000001
     CHANNELS 3 Zrotation Yrotation Xrotation
    JOINT LeftFoot
    {
      OFFSET 42.298609 0.000001 0.000001
      CHANNELS 3 Zrotation Yrotation Xrotation
     JOINT LeftToeBase
     {
       OFFSET 14.165858 0.000001 0.000000
       CHANNELS 3 Zrotation Yrotation Xrotation
      JOINT LeftToeEnd
      {
        OFFSET 6.714100 -0.234461 0.000000
        CHANNELS 3 Zrotation Yrotation Xrotation
      }
     }
    }
   }
  }
  JOINT RightLeg
  {
    OFFSET -8.303923 2.592729 -10.047278
    CHANNELS 3 Zrotation Yrotation Xrotation
   JOINT RightShin
   {
     OFFSET -43.369684 -0.000000 0.000001
     CHANNELS 3 Zrotation Yrotation Xrotation
    JOINT RightFoot
    {
      OFFSET -42.260785 0.000004 0.000002
      CHANNELS 3 Zrotation Yrotation Xrotation
     JOINT RightToeBase
     {
       OFFSET -14.222245 -0.000002 -0.000001
       CHANNELS 3 Zrotation Yrotation Xrotation
      JOINT RightToeEnd
      {
        OFFSET -6.660062 0.232574 -0.000002
        CHANNELS 3 Zrotation Yrotation Xrotation
      }
     }
    }
   }
  }
 }
}
MOTION
Frames: 4
Frame Time: 0.008333
0.000000 0.000000 0.000000 0.000000 0.000000 0.000000 1.711182 100.698143 1.961892 -89.339672 -181.726225 127.563852 -3.472794 0.093241 -0.092951 -13.166695 -0.675432 -0.498077 16.809856 -0.498215 -2.680085 16.555113 -1.426134 2.679512 -2.562857 -0.646239 0.881387 -24.150220 -2.208395 1.470498 0.000006 0.000000 0.000000 0.000006 0.000000 0.000000 0.024249 0.000201 0.001250 0.024240 0.000201 0.001249 71.935013 -105.210410 -60.043572 22.804158 -63.261772 9.762584 31.938061 -0.000054 -0.000566 2.263399 -5.956595 0.289899 17.636621 -26.322712 52.411155 -19.466645 -14.395592 29.410352 0.000000 -8.774814 0.000000 0.000000 0.000000 -0.000004 -0.609776 -1.795653 -3.889325 -4.807087 -11.046803 -2.937845 0.000000 -20.975994 0.000000 -5.019973 -25.033521 -4.031871 0.000006 0.000000 0.000000 -10.634530 -5.686969 -3.565584 10.573263 -17.922936 -3.113898 0.000000 -13.821193 0.000000 -0.501785 -31.181457 -4.027009 0.000002 0.000000 0.000002 -13.982710 -7.150195 -2.875039 13.772719 -8.401483 -3.218239 0.347728 -34.211501 0.771652 -0.963029 -17.733337 2.621012 0.000000 0.000000 0.000000 -17.346414 -20.095210 -4.201776 21.757546 -1.638370 3.866422 0.000000 -6.338816 0.000000 -1.697594 -22.591709 -6.193992 0.000000 -0.000004 -0.000002 35.960144 -72.371269 158.781858 38.640635 -56.272037 -3.188410 11.183559 -0.000044 -0.000153 -4.601173 -9.990895 21.715815 22.182096 -20.375874 49.933272 -16.701795 -16.743521 28.476499 0.000000 -12.690592 0.000000 0.000003 0.000000 0.000000 -0.105919 -1.513855 -4.275878 -5.039037 -5.612866 -2.953552 0.000000 -11.020509 0.000000 -6.111297 -15.895308 -3.840458 0.000000 0.000000 0.000000 -10.283364 -5.680285 -4.341833 11.028282 -11.302392 -2.372630 -1.384272 -14.238564 -6.320108 -0.625450 -26.924139 -3.827588 0.000002 0.000000 0.000002 -13.708517 -7.363472 -3.720934 18.141130 -14.052722 -3.242670 0.000000 -18.787243 0.000000 -0.429714 -8.456029 2.555498 0.000000 0.000000 0.000000 -15.923531 -20.094472 -5.473576 30.419190 -7.190812 1.735924 0.000000 -8.162914 0.000000 -1.861911 -22.861429 -6.167925 0.000000 -0.000003 -0.000001 179.018076 -2.339524 -6.518332 5.543364 0.000208 0.000203 -75.632858 3.599610 -4.823449 -7.231175 1.577962 2.142891 -0.999998 0.000000 0.000000 -0.135822 -2.081722 -8.162331 5.541915 -0.000065 0.000395 -75.086249 3.958943 0.488590 -4.524803 0.616273 1.664408 -1.000001 0.000000 0.000000
0.000000 0.000000 0.000000 0.000000 0.000000 0.000000 1.705510 100.697388 1.961827 -89.335731 -181.721810 127.533860 -3.473901 0.091975 -0.097875 -13.165441 -0.675253 -0.498930 16.819809 -0.480466 -2.676498 16.533338 -1.422957 2.679642 -2.562952 -0.645804 0.896008 -24.159727 -2.211261 1.488237 0.000006 0.000000 0.000000 0.000006 0.000000 0.000000 0.024244 0.000202 0.001255 0.024235 0.000202 0.001254 72.001509 -105.200090 -60.092470 22.831075 -63.277575 9.791491 31.893076 -0.000054 -0.000566 2.273512 -5.966262 0.278334 17.636621 -26.322712 52.411155 -19.466645 -14.395592 29.410352 0.000000 -8.774814 0.000000 0.000000 0.000000 -0.000004 -0.609776 -1.795653 -3.889325 -4.807087 -11.046803 -2.937845 0.000000 -20.975994 0.000000 -5.019973 -25.033521 -4.031871 0.000006 0.000000 0.000000 -10.634530 -5.686969 -3.565584 10.573263 -17.922936 -3.113898 0.000000 -13.821193 0.000000 -0.501785 -31.181457 -4.027009 0.000002 0.000000 0.000002 -13.982710 -7.150195 -2.875039 13.772719 -8.401483 -3.218239 0.347728 -34.211501 0.771652 -0.963029 -17.733337 2.621012 0.000000 0.000000 0.000000 -17.346414 -20.095210 -4.201776 21.757546 -1.638370 3.866422 0.000000 -6.338816 0.000000 -1.697594 -22.591709 -6.193992 0.000000 -0.000004 -0.000002 35.978012 -72.319231 158.804278 38.555562 -56.130161 -2.914862 11.404156 -0.000045 -0.000154 -4.671182 -10.083778 21.799639 22.182096 -20.375874 49.933272 -16.701795 -16.743521 28.476499 0.000000 -12.690592 0.000000 0.000003 0.000000 0.000000 -0.105919 -1.513855 -4.275878 -5.039037 -5.612866 -2.953552 0.000000 -11.020509 0.000000 -6.111297 -15.895308 -3.840458 0.000000 0.000000 0.000000 -10.283364 -5.680285 -4.341833 11.028282 -11.302392 -2.372630 -1.384272 -14.238564 -6.320108 -0.625450 -26.924139 -3.827588 0.000002 0.000000 0.000002 -13.708517 -7.363472 -3.720934 18.141130 -14.052722 -3.242670 0.000000 -18.787243 0.000000 -0.429714 -8.456029 2.555498 0.000000 0.000000 0.000000 -15.923531 -20.094472 -5.473576 30.419190 -7.190812 1.735924 0.000000 -8.162914 0.000000 -1.861911 -22.861429 -6.167925 0.000000 -0.000003 -0.000001 179.024758 -2.337100 -6.433236 5.542958 0.000208 0.000203 -75.639441 3.482524 -4.838382 -7.223477 1.577810 2.142922 -0.999998 0.000000 0.000000 -0.136875 -2.080307 -8.170853 5.542151 -0.000065 0.000395 -75.087249 4.003791 0.485593 -4.530102 0.616377 1.664410 -1.000001 0.000000 0.000000
0.000000 0.000000 0.000000 0.000000 0.000000 0.000000 1.699112 100.696625 1.960691 -89.332535 -181.716565 127.505685 -3.474927 0.090916 -0.103206 -13.163456 -0.674799 -0.499372 16.829941 -0.463825 -2.672749 16.511685 -1.419410 2.679773 -2.562989 -0.645369 0.910522 -24.169945 -2.212761 1.505258 0.000006 0.000000 0.000000 0.000006 0.000000 0.000000 0.024222 0.000202 0.001258 0.024213 0.000202 0.001257 72.069716 -105.189405 -60.142232 22.858963 -63.293467 9.817513 31.852442 -0.000053 -0.000566 2.280463 -5.974086 0.266733 17.636621 -26.322712 52.411155 -19.466645 -14.395592 29.410352 0.000000 -8.774814 0.000000 0.000000 0.000000 -0.000004 -0.609776 -1.795653 -3.889325 -4.807087 -11.046803 -2.937845 0.000000 -20.975994 0.000000 -5.019973 -25.033521 -4.031871 0.000006 0.000000 0.000000 -10.634530 -5.686969 -3.565584 10.573263 -17.922936 -3.113898 0.000000 -13.821193 0.000000 -0.501785 -31.181457 -4.027009 0.000002 0.000000 0.000002 -13.982710 -7.150195 -2.875039 13.772719 -8.401483 -3.218239 0.347728 -34.211501 0.771652 -0.963029 -17.733337 2.621012 0.000000 0.000000 0.000000 -17.346414 -20.095210 -4.201776 21.757546 -1.638370 3.866422 0.000000 -6.338816 0.000000 -1.697594 -22.591709 -6.193992 0.000000 -0.000004 -0.000002 36.000343 -72.268726 158.822206 38.472681 -55.992685 -2.648915 11.624580 -0.000045 -0.000154 -4.748082 -10.175116 21.878912 22.182096 -20.375874 49.933272 -16.701795 -16.743521 28.476499 0.000000 -12.690592 0.000000 0.000003 0.000000 0.000000 -0.105919 -1.513855 -4.275878 -5.039037 -5.612866 -2.953552 0.000000 -11.020509 0.000000 -6.111297 -15.895308 -3.840458 0.000000 0.000000 0.000000 -10.283364 -5.680285 -4.341833 11.028282 -11.302392 -2.372630 -1.384272 -14.238564 -6.320108 -0.625450 -26.924139 -3.827588 0.000002 0.000000 0.000002 -13.708517 -7.363472 -3.720934 18.141130 -14.052722 -3.242670 0.000000 -18.787243 0.000000 -0.429714 -8.456029 2.555498 0.000000 0.000000 0.000000 -15.923531 -20.094472 -5.473576 30.419190 -7.190812 1.735924 0.000000 -8.162914 0.000000 -1.861911 -22.861429 -6.167925 0.000000 -0.000003 -0.000001 179.032456 -2.334388 -6.344581 5.542318 0.000208 0.000203 -75.645693 3.363458 -4.852965 -7.215681 1.577668 2.142936 -0.999998 0.000000 0.000000 -0.136668 -2.078933 -8.178993 5.542911 -0.000065 0.000395 -75.089126 4.046603 0.481557 -4.534599 0.616461 1.664404 -1.000001 0.000000 0.000000
0.000000 0.000000 0.000000 0.000000 0.000000 0.000000 1.692809 100.696152 1.962862 -89.327944 -181.712907 127.473785 -3.476133 0.089354 -0.107717 -13.162929 -0.674887 -0.500624 16.839726 -0.444976 -2.669292 16.489070 -1.416501 2.679905 -2.563069 -0.644935 0.925310 -24.178821 -2.216959 1.523774 0.000006 0.000000 0.000000 0.000006 0.000000 0.000000 0.024226 0.000203 0.001263 0.024217 0.000203 0.001263 72.134714 -105.179493 -60.190484 22.884859 -63.309207 9.849235 31.803193 -0.000053 -0.000566 2.293655 -5.985663 0.255208 17.636621 -26.322712 52.411155 -19.466645 -14.395592 29.410352 0.000000 -8.774814 0.000000 0.000000 0.000000 -0.000004 -0.609776 -1.795653 -3.889325 -4.807087 -11.046803 -2.937845 0.000000 -20.975994 0.000000 -5.019973 -25.033521 -4.031871 0.000006 0.000000 0.000000 -10.634530 -5.686969 -3.565584 10.573263 -17.922936 -3.113898 0.000000 -13.821193 0.000000 -0.501785 -31.181457 -4.027009 0.000002 0.000000 0.000002 -13.982710 -7.150195 -2.875039 13.772719 -8.401483 -3.218239 0.347728 -34.211501 0.771652 -0.963029 -17.733337 2.621012 0.000000 0.000000 0.000000 -17.346414 -20.095210 -4.201776 21.757546 -1.638370 3.866422 0.000000 -6.338816 0.000000 -1.697594 -22.591709 -6.193992 0.000000 -0.000004 -0.000002 36.017094 -72.216806 158.845545 38.390040 -55.846386 -2.375189 11.845072 -0.000046 -0.000155 -4.811881 -10.268757 21.971061 22.182096 -20.375874 49.933272 -16.701795 -16.743521 28.476499 0.000000 -12.690592 0.000000 0.000003 0.000000 0.000000 -0.105919 -1.513855 -4.275878 -5.039037 -5.612866 -2.953552 0.000000 -11.020509 0.000000 -6.111297 -15.895308 -3.840458 0.000000 0.000000 0.000000 -10.283364 -5.680285 -4.341833 11.028282 -11.302392 -2.372630 -1.384272 -14.238564 -6.320108 -0.625450 -26.924139 -3.827588 0.000002 0.000000 0.000002 -13.708517 -7.363472 -3.720934 18.141130 -14.052722 -3.242670 0.000000 -18.787243 0.000000 -0.429714 -8.456029 2.555498 0.000000 0.000000 0.000000 -15.923531 -20.094472 -5.473576 30.419190 -7.190812 1.735924 0.000000 -8.162914 0.000000 -1.861911 -22.861429 -6.167925 0.000000 -0.000003 -0.000001 179.037594 -2.332136 -6.262973 5.543204 0.000208 0.000203 -75.653051 3.248331 -4.868164 -7.207882 1.577517 2.142963 -0.999998 0.000000 0.000000 -0.139310 -2.077608 -8.187885 5.543305 -0.000065 0.000395 -75.089494 4.093525 0.479588 -4.540798 0.616583 1.664408 -1.000001 0.000000 0.000000
